<mxfile host="app.diagrams.net" modified="2022-01-06T03:52:41.674Z" agent="5.0 (Windows NT 10.0; Win64; x64) AppleWebKit/537.36 (KHTML, like Gecko) Chrome/96.0.4664.110 Safari/537.36 Edg/96.0.1054.62" etag="Zatpu7celHT84DC4EbbO" version="15.8.8" type="github">
  <diagram id="gqwgJQvt6GxcC7z-_AkO" name="Page-1">
    <mxGraphModel dx="2062" dy="1122" grid="1" gridSize="10" guides="1" tooltips="1" connect="1" arrows="1" fold="1" page="1" pageScale="1" pageWidth="827" pageHeight="1169" math="0" shadow="0">
      <root>
        <mxCell id="0" />
        <mxCell id="1" parent="0" />
        <mxCell id="sH6OMR17xY7aLeD4Rl4U-1" value="外设扫描仪设备" style="rounded=0;whiteSpace=wrap;html=1;" vertex="1" parent="1">
          <mxGeometry x="120" y="280" width="120" height="40" as="geometry" />
        </mxCell>
        <mxCell id="sH6OMR17xY7aLeD4Rl4U-8" style="edgeStyle=orthogonalEdgeStyle;rounded=0;orthogonalLoop=1;jettySize=auto;html=1;exitX=0.5;exitY=1;exitDx=0;exitDy=0;exitPerimeter=0;entryX=0.5;entryY=0;entryDx=0;entryDy=0;entryPerimeter=0;" edge="1" parent="1" source="sH6OMR17xY7aLeD4Rl4U-3" target="sH6OMR17xY7aLeD4Rl4U-4">
          <mxGeometry relative="1" as="geometry" />
        </mxCell>
        <mxCell id="sH6OMR17xY7aLeD4Rl4U-3" value="start scan" style="strokeWidth=2;html=1;shape=mxgraph.flowchart.start_1;whiteSpace=wrap;" vertex="1" parent="1">
          <mxGeometry x="320" y="200" width="80" height="40" as="geometry" />
        </mxCell>
        <mxCell id="sH6OMR17xY7aLeD4Rl4U-5" value="check" style="edgeStyle=orthogonalEdgeStyle;rounded=0;orthogonalLoop=1;jettySize=auto;html=1;exitX=0;exitY=0.5;exitDx=0;exitDy=0;exitPerimeter=0;entryX=1;entryY=0.5;entryDx=0;entryDy=0;" edge="1" parent="1" source="sH6OMR17xY7aLeD4Rl4U-4" target="sH6OMR17xY7aLeD4Rl4U-1">
          <mxGeometry relative="1" as="geometry" />
        </mxCell>
        <mxCell id="sH6OMR17xY7aLeD4Rl4U-7" style="edgeStyle=orthogonalEdgeStyle;rounded=0;orthogonalLoop=1;jettySize=auto;html=1;exitX=0.5;exitY=1;exitDx=0;exitDy=0;exitPerimeter=0;entryX=0.44;entryY=0.05;entryDx=0;entryDy=0;entryPerimeter=0;" edge="1" parent="1" source="sH6OMR17xY7aLeD4Rl4U-4" target="sH6OMR17xY7aLeD4Rl4U-6">
          <mxGeometry relative="1" as="geometry" />
        </mxCell>
        <mxCell id="sH6OMR17xY7aLeD4Rl4U-4" value="是否有待扫的文件" style="strokeWidth=2;html=1;shape=mxgraph.flowchart.decision;whiteSpace=wrap;" vertex="1" parent="1">
          <mxGeometry x="320" y="280" width="80" height="40" as="geometry" />
        </mxCell>
        <mxCell id="sH6OMR17xY7aLeD4Rl4U-10" value="load" style="edgeStyle=orthogonalEdgeStyle;rounded=0;orthogonalLoop=1;jettySize=auto;html=1;exitX=0;exitY=0.5;exitDx=0;exitDy=0;entryX=1;entryY=0.5;entryDx=0;entryDy=0;entryPerimeter=0;" edge="1" parent="1" source="sH6OMR17xY7aLeD4Rl4U-6" target="sH6OMR17xY7aLeD4Rl4U-9">
          <mxGeometry x="-0.0526" relative="1" as="geometry">
            <mxPoint as="offset" />
          </mxGeometry>
        </mxCell>
        <mxCell id="sH6OMR17xY7aLeD4Rl4U-6" value="唤起dll" style="rounded=1;whiteSpace=wrap;html=1;absoluteArcSize=1;arcSize=14;strokeWidth=2;" vertex="1" parent="1">
          <mxGeometry x="316" y="360" width="100" height="40" as="geometry" />
        </mxCell>
        <mxCell id="sH6OMR17xY7aLeD4Rl4U-9" value="加载扫描仪配置" style="strokeWidth=2;html=1;shape=mxgraph.flowchart.direct_data;whiteSpace=wrap;" vertex="1" parent="1">
          <mxGeometry x="120" y="360" width="120" height="40" as="geometry" />
        </mxCell>
      </root>
    </mxGraphModel>
  </diagram>
</mxfile>
